<svg width="2427" height="706" viewBox="0 0 2427 706" fill="none" xmlns="http://www.w3.org/2000/svg">
<path fill-rule="evenodd" clip-rule="evenodd" d="M418.768 25.2137C409.652 39.0816 386.589 74.028 367.518 102.873C336.703 149.48 291.373 218.602 267.203 255.84L258.692 268.952L313.227 268.952L367.764 268.952L384.576 243.921C393.821 230.153 408.389 209.008 416.948 196.929L432.51 174.97L435.451 178.653C443.844 189.161 583.147 401.252 584.805 406.046C585.035 406.712 611.55 407.07 643.728 406.841L702.235 406.423L648.636 325.371C600.203 252.128 461.496 40.69 442.867 11.7049L435.344 6.71598e-06L418.768 25.2137ZM291.281 307.062C230.451 307.974 231.417 307.855 214.518 316.479C205.533 321.065 188.185 337.624 180.484 348.966C161.457 376.993 154.075 412.38 161.064 442.043C167.194 468.053 176.759 477.562 236.795 517.322C262.49 534.34 285.412 550.522 287.733 553.281C292.945 559.474 295.232 567.366 295.244 579.178C295.267 603.33 286.391 621.75 270.627 630.258C264.507 633.561 261.974 633.718 202.308 634.483C168.228 634.92 140.157 635.209 139.929 635.126C139.7 635.042 144.531 626.327 150.664 615.758C156.798 605.189 162.245 595.423 162.769 594.057C163.621 591.838 158.724 591.573 117.058 591.573L70.3929 591.573L35.4615 647.491C16.2497 678.246 0.291814 703.993 0.00106256 704.705C-0.291277 705.417 59.1665 706 132.129 706C282.73 706 279.764 706.205 304.177 694.152C321.689 685.506 333.071 675.619 342.978 660.45C358.249 637.065 363.997 615.319 363.916 581.242C363.785 526.587 350.739 507.882 280.091 461.054C258.207 446.547 238.409 432.431 236.097 429.682C226.912 418.762 230.085 400.215 243.035 389.127C252.737 380.822 257.071 380.2 305.367 380.2L349.272 380.2L349.272 342.852C349.272 322.311 349.093 305.662 348.875 305.854C348.658 306.047 322.739 306.59 291.281 307.062ZM393.759 507.076L393.759 706L484.503 706L575.248 706L572.971 702.424C571.719 700.458 561.9 684.723 551.154 667.46L531.615 636.072L498.436 636.072L465.255 636.072L465.255 524.798L465.255 413.522L441.561 378.188C414.247 337.454 395.597 309.991 394.512 308.907C394.097 308.492 393.759 397.669 393.759 507.076ZM629.696 446.115C599.974 451.612 578.491 466.966 562.243 494.322C549.767 515.331 544.713 535.821 544.729 565.35C544.765 639.648 590.289 695.77 657.5 704.377C666.378 705.513 707.082 705.952 776.305 705.656L881.602 705.205L860.413 670.241C848.757 651.011 828.594 617.934 815.604 596.738L791.985 558.198L738.972 558.198L685.959 558.198L698.24 576.077C718.07 604.943 715.851 602.697 724.562 602.697C733.04 602.697 733.613 603.273 748.562 626.754L754.624 636.275L704.076 635.776L653.528 635.277L644.467 630.828C622.375 619.974 609.182 591.735 612.005 561.342C614.069 539.128 621.849 525.403 636.453 518.209C643.856 514.562 645.109 514.479 703.981 513.699L763.966 512.904L746.327 485.092C736.624 469.795 726.901 454.239 724.719 450.525L720.75 443.771L680.784 443.914C655.486 444.004 636.736 444.813 629.696 446.115Z" fill="#F6FBFF"/>
<path d="M2250.6 356.841L2227.49 423.386L2172.94 423.386L2267.98 162.938L2332.32 162.938L2426.99 423.386L2373 423.386L2349.89 356.841L2250.6 356.841ZM2300.15 203.05C2298.92 207.979 2297.19 213.894 2294.98 220.795C2292.76 227.696 2291.15 232.564 2290.17 235.398L2262.8 315.806L2337.69 315.806L2309.58 233.734C2307.86 228.682 2306.25 223.568 2304.77 218.392C2303.3 213.216 2301.75 208.102 2300.15 203.05Z" fill="#F6FBFF"/>
<path d="M1950.81 324.493L1950.81 423.386L1896.27 423.386L1896.27 162.938L2026.43 162.938C2057.5 162.938 2081.47 169.655 2098.36 183.087C2115.25 196.396 2123.69 215.558 2123.69 240.574C2123.69 258.812 2118.51 274.585 2108.16 287.894C2097.81 301.08 2083.81 309.767 2066.19 313.957L2136.63 423.386L2075.25 423.386L2014.79 324.493L1950.81 324.493ZM2068.78 242.792C2068.78 230.345 2064.77 220.98 2056.76 214.695C2048.75 208.41 2036.73 205.268 2020.7 205.268L1950.81 205.268L1950.81 282.164L2022.18 282.164C2037.47 282.164 2049.05 278.713 2056.94 271.812C2064.83 264.912 2068.78 255.238 2068.78 242.792Z" fill="#F6FBFF"/>
<path d="M1658.22 324.493L1658.22 423.386L1603.68 423.386L1603.68 162.938L1733.85 162.938C1764.91 162.938 1788.88 169.655 1805.77 183.087C1822.66 196.396 1831.1 215.558 1831.1 240.574C1831.1 258.812 1825.93 274.585 1815.57 287.894C1805.22 301.08 1791.23 309.767 1773.6 313.957L1844.05 423.386L1782.66 423.386L1722.2 324.493L1658.22 324.493ZM1776.19 242.792C1776.19 230.345 1772.18 220.98 1764.17 214.695C1756.16 208.41 1744.14 205.268 1728.12 205.268L1658.22 205.268L1658.22 282.164L1729.59 282.164C1744.88 282.164 1756.47 278.713 1764.36 271.812C1772.24 264.912 1776.19 255.238 1776.19 242.792Z" fill="#F6FBFF"/>
<path d="M1544.63 381.241L1544.63 423.386L1332.18 423.386L1332.18 162.938L1537.05 162.938L1537.05 205.083L1386.72 205.083L1386.72 270.519L1525.77 270.519L1525.77 312.663L1386.72 312.663L1386.72 381.241L1544.63 381.241Z" fill="#F6FBFF"/>
<path d="M1262.39 162.938L1262.39 423.386L1207.85 423.386L1207.85 162.938L1262.39 162.938Z" fill="#F6FBFF"/>
<path d="M1148.8 348.337C1148.8 373.846 1139.31 393.378 1120.32 406.933C1101.46 420.365 1073.73 427.082 1037.12 427.082C971.171 427.082 932.774 403.236 921.927 355.546L974.623 346.859C978.197 360.66 985.162 370.704 995.516 376.988C1005.87 383.15 1020.23 386.231 1038.6 386.231C1057.7 386.231 1072 383.335 1081.49 377.543C1090.99 371.751 1095.73 363.063 1095.73 351.48C1095.73 344.086 1093.57 337.986 1089.26 333.18C1084.95 328.374 1078.78 324.369 1070.77 321.165C1066.83 319.563 1061.03 317.838 1053.39 315.989C1045.75 314.018 1036.26 311.861 1024.91 309.52C1011.85 306.439 1001.62 303.851 994.222 301.756C986.826 299.538 980.909 297.443 976.472 295.472C972.034 293.377 967.72 291.097 963.529 288.632C954.284 283.087 947.073 275.693 941.896 266.451C936.719 257.209 934.13 245.687 934.13 231.885C934.13 208.348 942.943 190.356 960.57 177.91C978.321 165.34 1004.08 159.056 1037.86 159.056C1070.15 159.056 1094.37 164.108 1110.52 174.213C1126.79 184.318 1137.27 201.016 1141.96 224.306L1089.07 231.515C1086.36 220.301 1080.82 211.86 1072.43 206.191C1064.17 200.523 1052.28 197.688 1036.75 197.688C1020.23 197.688 1007.84 200.276 999.584 205.452C991.325 210.628 987.196 218.391 987.196 228.742C987.196 235.52 988.921 241.065 992.373 245.378C995.948 249.692 1001.19 253.388 1008.09 256.469C1014.62 259.427 1028.61 263.185 1050.06 267.745C1062.51 270.456 1073.23 273.044 1082.23 275.508C1091.23 277.85 1098.44 280.129 1103.87 282.348C1109.29 284.689 1114.1 287.154 1118.29 289.741C1122.6 292.329 1126.3 295.102 1129.38 298.059C1135.67 304.098 1140.48 311.307 1143.8 319.686C1147.13 327.943 1148.8 337.493 1148.8 348.337Z" fill="#F6FBFF"/>
<path d="M2424.02 527.053C2424.02 533.976 2422.49 539.988 2419.41 545.089C2416.34 550.19 2411.97 554.146 2406.29 556.957C2400.67 559.716 2393.95 561.095 2386.14 561.095L2353.81 561.095L2353.81 603.96L2338.89 603.96L2338.89 493.947L2385.21 493.947C2397.55 493.947 2407.1 496.836 2413.87 502.614C2420.64 508.392 2424.02 516.538 2424.02 527.053ZM2409.03 527.209C2409.03 512.999 2400.49 505.893 2383.41 505.893L2353.81 505.893L2353.81 549.305L2384.03 549.305C2392.36 549.305 2398.61 547.483 2402.78 543.84C2406.94 540.144 2409.03 534.6 2409.03 527.209Z" fill="#F6FBFF"/>
<path d="M2264.87 605.522C2255.87 605.522 2248 603.856 2241.29 600.525C2234.57 597.194 2229.36 592.431 2225.67 586.237C2221.97 580.042 2220.12 572.625 2220.12 563.984L2220.12 493.947L2235.04 493.947L2235.04 562.735C2235.04 572.781 2237.59 580.407 2242.69 585.612C2247.8 590.817 2255.16 593.42 2264.8 593.42C2274.69 593.42 2282.37 590.739 2287.84 585.378C2293.36 579.964 2296.11 572.078 2296.11 561.72L2296.11 493.947L2310.95 493.947L2310.95 562.579C2310.95 571.48 2309.05 579.131 2305.25 585.534C2301.5 591.936 2296.17 596.881 2289.24 600.369C2282.37 603.804 2274.25 605.522 2264.87 605.522Z" fill="#F6FBFF"/>
<path d="M2197.66 548.448C2197.66 560.212 2195.42 570.362 2190.94 578.899C2186.51 587.436 2180.21 594.02 2172.04 598.653C2163.86 603.234 2154.18 605.524 2142.98 605.524C2131.74 605.524 2122.03 603.234 2113.85 598.653C2105.73 594.072 2099.46 587.514 2095.03 578.977C2090.66 570.441 2088.47 560.264 2088.47 548.448C2088.47 536.684 2090.63 526.638 2094.95 518.31C2099.33 509.929 2105.57 503.501 2113.7 499.024C2121.87 494.548 2131.69 492.31 2143.14 492.31C2154.39 492.31 2164.07 494.522 2172.19 498.946C2180.37 503.371 2186.64 509.773 2191.02 518.154C2195.44 526.482 2197.66 536.58 2197.66 548.448ZM2182.43 548.448C2182.43 534.758 2178.99 524.01 2172.12 516.202C2165.3 508.394 2155.64 504.49 2143.14 504.49C2130.54 504.49 2120.8 508.342 2113.93 516.046C2107.06 523.749 2103.62 534.55 2103.62 548.448C2103.62 557.61 2105.18 565.574 2108.31 572.34C2111.43 579.055 2115.94 584.261 2121.82 587.956C2127.7 591.6 2134.76 593.422 2142.98 593.422C2155.69 593.422 2165.43 589.518 2172.19 581.71C2179.01 573.85 2182.43 562.763 2182.43 548.448Z" fill="#F6FBFF"/>
<path d="M1990.94 558.284L1990.94 603.96L1976.02 603.96L1976.02 493.947L2027.8 493.947C2040.19 493.947 2049.75 496.732 2056.46 502.302C2063.23 507.819 2066.62 515.523 2066.62 525.413C2066.62 533.585 2064.22 540.456 2059.43 546.026C2054.69 551.596 2048.13 555.109 2039.75 556.567L2070.99 603.96L2053.81 603.96L2025.22 558.284L1990.94 558.284ZM2051.62 525.569C2051.62 519.167 2049.44 514.3 2045.06 510.968C2040.74 507.585 2034.49 505.893 2026.32 505.893L1990.94 505.893L1990.94 546.494L2026.94 546.494C2034.8 546.494 2040.87 544.673 2045.14 541.029C2049.46 537.333 2051.62 532.18 2051.62 525.569Z" fill="#F6FBFF"/>
<path d="M1899.51 593.422C1906.69 593.422 1913.38 592.329 1919.58 590.142C1925.83 587.956 1930.88 584.989 1934.73 581.241L1934.73 561.409L1901.85 561.409L1901.85 548.917L1948.47 548.917L1948.47 586.863C1942.64 592.797 1935.48 597.404 1927 600.683C1918.56 603.91 1909.4 605.524 1899.51 605.524C1888.05 605.524 1878.18 603.208 1869.91 598.575C1861.63 593.942 1855.25 587.358 1850.77 578.821C1846.29 570.232 1844.05 560.108 1844.05 548.448C1844.05 530.594 1848.84 516.774 1858.42 506.988C1868 497.203 1881.46 492.31 1898.8 492.31C1910.99 492.31 1920.88 494.366 1928.48 498.478C1936.08 502.59 1941.94 509.175 1946.05 518.232L1931.84 522.448C1928.72 516.202 1924.39 511.647 1918.87 508.784C1913.41 505.921 1906.59 504.49 1898.41 504.49C1885.71 504.49 1876 508.342 1869.28 516.046C1862.56 523.697 1859.21 534.498 1859.21 548.448C1859.21 562.346 1862.77 573.329 1869.91 581.398C1877.04 589.414 1886.91 593.422 1899.51 593.422Z" fill="#F6FBFF"/>
<path d="M1779.35 573.59C1779.35 583.74 1775.37 591.6 1767.4 597.17C1759.49 602.739 1748.32 605.524 1733.9 605.524C1707.08 605.524 1691.54 596.207 1687.27 577.572L1701.72 574.683C1703.39 581.294 1706.93 586.16 1712.34 589.284C1717.76 592.355 1725.12 593.89 1734.44 593.89C1744.08 593.89 1751.5 592.251 1756.7 588.971C1761.96 585.64 1764.59 580.773 1764.59 574.371C1764.59 570.779 1763.76 567.864 1762.09 565.626C1760.48 563.387 1758.19 561.54 1755.22 560.082C1752.25 558.625 1748.71 557.401 1744.6 556.412C1740.48 555.423 1735.93 554.356 1730.93 553.211C1725.15 551.91 1720.31 550.635 1716.4 549.385C1712.55 548.136 1709.37 546.835 1706.87 545.481C1704.37 544.076 1702.24 542.592 1700.47 541.031C1697.87 538.636 1695.86 535.852 1694.46 532.676C1693.1 529.501 1692.43 525.857 1692.43 521.745C1692.43 512.324 1696.02 505.062 1703.2 499.961C1710.44 494.86 1720.78 492.31 1734.21 492.31C1746.71 492.31 1756.26 494.236 1762.87 498.087C1769.48 501.887 1774.12 508.394 1776.77 517.607L1762.09 520.184C1760.48 514.354 1757.41 510.138 1752.88 507.535C1748.35 504.88 1742.07 503.553 1734.05 503.553C1725.25 503.553 1718.54 505.01 1713.9 507.925C1709.27 510.84 1706.95 515.187 1706.95 520.965C1706.95 524.348 1707.84 527.159 1709.61 529.397C1711.43 531.583 1714.03 533.431 1717.42 534.941C1720.59 536.45 1727.34 538.35 1737.65 540.64C1741.86 541.629 1746.03 542.67 1750.14 543.764C1754.26 544.805 1758.13 546.132 1761.78 547.746C1763.91 548.63 1765.94 549.724 1767.87 551.025C1769.85 552.274 1771.57 553.732 1773.03 555.397C1775 557.584 1776.54 560.16 1777.63 563.127C1778.78 566.094 1779.35 569.582 1779.35 573.59Z" fill="#F6FBFF"/>
<path d="M1624.5 593.266C1639.91 593.266 1651.5 585.64 1659.26 570.388L1671.44 576.479C1666.91 585.952 1660.53 593.161 1652.31 598.106C1644.13 603.051 1634.63 605.524 1623.8 605.524C1612.66 605.524 1603.08 603.208 1595.06 598.575C1587.04 593.942 1580.87 587.358 1576.55 578.821C1572.28 570.232 1570.14 560.108 1570.14 548.448C1570.14 536.736 1572.28 526.69 1576.55 518.31C1580.82 509.929 1586.96 503.501 1594.98 499.024C1603 494.548 1612.58 492.31 1623.72 492.31C1635.44 492.31 1645.22 494.6 1653.09 499.181C1660.95 503.761 1666.73 510.554 1670.42 519.559L1656.29 524.244C1653.74 517.841 1649.62 512.948 1643.95 509.565C1638.33 506.182 1631.63 504.49 1623.88 504.49C1611.69 504.49 1602.22 508.42 1595.45 516.28C1588.68 524.088 1585.29 534.811 1585.29 548.448C1585.29 557.401 1586.88 565.261 1590.06 572.028C1593.29 578.743 1597.82 583.974 1603.65 587.722C1609.53 591.418 1616.48 593.266 1624.5 593.266Z" fill="#F6FBFF"/>
<path d="M1544.78 493.947L1544.78 603.96L1529.86 603.96L1529.86 493.947L1544.78 493.947Z" fill="#F6FBFF"/>
<path d="M1471.16 506.128L1471.16 603.96L1456.32 603.96L1456.32 506.128L1418.52 506.128L1418.52 493.947L1508.96 493.947L1508.96 506.128L1471.16 506.128Z" fill="#F6FBFF"/>
<path d="M1405.18 573.59C1405.18 583.74 1401.2 591.6 1393.23 597.17C1385.32 602.739 1374.15 605.524 1359.72 605.524C1332.91 605.524 1317.37 596.207 1313.1 577.572L1327.55 574.683C1329.21 581.294 1332.75 586.16 1338.17 589.284C1343.58 592.355 1350.95 593.89 1360.27 593.89C1369.9 593.89 1377.32 592.251 1382.53 588.971C1387.79 585.64 1390.42 580.773 1390.42 574.371C1390.42 570.779 1389.58 567.864 1387.92 565.626C1386.3 563.387 1384.01 561.54 1381.05 560.082C1378.08 558.625 1374.54 557.401 1370.42 556.412C1366.31 555.423 1361.75 554.356 1356.76 553.211C1350.98 551.91 1346.13 550.635 1342.23 549.385C1338.38 548.136 1335.2 546.835 1332.7 545.481C1330.2 544.076 1328.07 542.592 1326.3 541.031C1323.69 538.636 1321.69 535.852 1320.28 532.676C1318.93 529.501 1318.25 525.857 1318.25 521.745C1318.25 512.324 1321.84 505.062 1329.03 499.961C1336.27 494.86 1346.6 492.31 1360.04 492.31C1372.53 492.31 1382.09 494.236 1388.7 498.087C1395.31 501.887 1399.95 508.394 1402.6 517.607L1387.92 520.184C1386.3 514.354 1383.23 510.138 1378.7 507.535C1374.17 504.88 1367.9 503.553 1359.88 503.553C1351.08 503.553 1344.36 505.01 1339.73 507.925C1335.1 510.84 1332.78 515.187 1332.78 520.965C1332.78 524.348 1333.66 527.159 1335.43 529.397C1337.26 531.583 1339.86 533.431 1343.24 534.941C1346.42 536.45 1353.16 538.35 1363.47 540.64C1367.69 541.629 1371.86 542.67 1375.97 543.764C1380.08 544.805 1383.96 546.132 1387.61 547.746C1389.74 548.63 1391.77 549.724 1393.7 551.025C1395.68 552.274 1397.39 553.732 1398.85 555.397C1400.83 557.584 1402.37 560.16 1403.46 563.127C1404.61 566.094 1405.18 569.582 1405.18 573.59Z" fill="#F6FBFF"/>
<path d="M1288.59 493.947L1288.59 603.96L1273.68 603.96L1273.68 493.947L1288.59 493.947Z" fill="#F6FBFF"/>
<path d="M1195.52 593.422C1202.71 593.422 1209.4 592.329 1215.59 590.142C1221.84 587.956 1226.89 584.989 1230.74 581.241L1230.74 561.409L1197.86 561.409L1197.86 548.917L1244.49 548.917L1244.49 586.863C1238.66 592.797 1231.5 597.404 1223.01 600.683C1214.58 603.91 1205.41 605.524 1195.52 605.524C1184.07 605.524 1174.2 603.208 1165.92 598.575C1157.64 593.942 1151.26 587.358 1146.79 578.821C1142.31 570.232 1140.07 560.108 1140.07 548.448C1140.07 530.594 1144.86 516.774 1154.44 506.988C1164.02 497.203 1177.48 492.31 1194.82 492.31C1207 492.31 1216.89 494.366 1224.5 498.478C1232.1 502.59 1237.96 509.175 1242.07 518.232L1227.85 522.448C1224.73 516.202 1220.41 511.647 1214.89 508.784C1209.42 505.921 1202.6 504.49 1194.43 504.49C1181.72 504.49 1172.01 508.342 1165.3 516.046C1158.58 523.697 1155.22 534.498 1155.22 548.448C1155.22 562.346 1158.79 573.329 1165.92 581.398C1173.05 589.414 1182.92 593.422 1195.52 593.422Z" fill="#F6FBFF"/>
<path d="M1121.9 548.448C1121.9 560.212 1119.66 570.362 1115.18 578.899C1110.75 587.436 1104.45 594.02 1096.28 598.653C1088.1 603.234 1078.42 605.524 1067.22 605.524C1055.98 605.524 1046.27 603.234 1038.09 598.653C1029.97 594.072 1023.7 587.514 1019.27 578.977C1014.9 570.441 1012.71 560.264 1012.71 548.448C1012.71 536.684 1014.87 526.638 1019.19 518.31C1023.57 509.929 1029.81 503.501 1037.94 499.024C1046.11 494.548 1055.93 492.31 1067.38 492.31C1078.63 492.31 1088.31 494.522 1096.43 498.946C1104.61 503.371 1110.88 509.773 1115.26 518.154C1119.68 526.482 1121.9 536.58 1121.9 548.448ZM1106.67 548.448C1106.67 534.758 1103.23 524.01 1096.36 516.202C1089.54 508.394 1079.88 504.49 1067.38 504.49C1054.78 504.49 1045.04 508.342 1038.17 516.046C1031.3 523.749 1027.86 534.55 1027.86 548.448C1027.86 557.61 1029.42 565.574 1032.55 572.34C1035.67 579.055 1040.18 584.261 1046.06 587.956C1051.94 591.6 1059 593.422 1067.22 593.422C1079.93 593.422 1089.67 589.518 1096.43 581.71C1103.26 573.85 1106.67 562.763 1106.67 548.448Z" fill="#F6FBFF"/>
<path d="M997.344 591.78L997.344 603.96L926.818 603.96L926.818 493.947L941.736 493.947L941.736 591.78L997.344 591.78Z" fill="#F6FBFF"/>
</svg>
