<svg width="882" height="706" viewBox="0 0 882 706" fill="none" xmlns="http://www.w3.org/2000/svg">
<path fill-rule="evenodd" clip-rule="evenodd" d="M418.957 25.2137C409.836 39.0816 386.763 74.028 367.684 102.873C336.855 149.48 291.505 218.602 267.323 255.84L258.808 268.952L313.368 268.952L367.93 268.952L384.749 243.921C393.998 230.153 408.573 209.008 417.136 196.929L432.705 174.97L435.647 178.653C444.044 189.161 583.41 401.252 585.068 406.046C585.299 406.712 611.826 407.07 644.019 406.841L702.551 406.423L648.929 325.371C600.474 252.128 461.704 40.69 443.067 11.7049L435.541 6.719e-06L418.957 25.2137ZM291.412 307.062C230.554 307.974 231.521 307.855 214.615 316.479C205.626 321.065 188.27 337.624 180.566 348.966C161.53 376.993 154.145 412.38 161.137 442.043C167.269 468.053 176.838 477.562 236.901 517.322C262.609 534.34 285.541 550.522 287.863 553.281C293.077 559.474 295.366 567.366 295.377 579.178C295.4 603.33 286.52 621.75 270.749 630.259C264.626 633.561 262.092 633.718 202.399 634.483C168.304 634.92 140.221 635.209 139.992 635.127C139.763 635.042 144.596 626.327 150.732 615.758C156.869 605.189 162.318 595.423 162.843 594.057C163.695 591.838 158.796 591.573 117.11 591.573L70.4247 591.573L35.4775 647.491C16.2571 678.246 0.291945 703.993 0.00106304 704.705C-0.291409 705.417 59.1932 706 132.189 706C282.858 706 279.89 706.205 304.315 694.152C321.834 685.506 333.222 675.619 343.132 660.45C358.411 637.065 364.162 615.319 364.08 581.242C363.949 526.587 350.897 507.882 280.217 461.054C258.323 446.547 238.516 432.431 236.204 429.682C227.015 418.762 230.189 400.215 243.145 389.127C252.851 380.822 257.187 380.2 305.505 380.2L349.43 380.2L349.43 342.852C349.43 322.311 349.25 305.662 349.033 305.854C348.815 306.047 322.885 306.59 291.412 307.062ZM393.936 507.076L393.936 706L484.722 706L575.507 706L573.229 702.424C571.977 700.458 562.154 684.723 551.402 667.46L531.854 636.072L498.66 636.072L465.465 636.072L465.465 524.798L465.465 413.522L441.76 378.188C414.433 337.454 395.776 309.991 394.69 308.907C394.275 308.492 393.936 397.669 393.936 507.076ZM629.98 446.115C600.245 451.612 578.751 466.966 562.497 494.322C550.014 515.331 544.958 535.821 544.974 565.35C545.011 639.648 590.555 695.77 657.797 704.377C666.679 705.514 707.401 705.952 776.655 705.657L882 705.205L860.801 670.241C849.14 651.011 828.967 617.934 815.971 596.738L792.342 558.198L739.306 558.198L686.268 558.198L698.555 576.077C718.394 604.943 716.173 602.698 724.889 602.698C733.37 602.698 733.944 603.273 748.9 626.754L754.964 636.275L704.393 635.777L653.823 635.277L644.758 630.828C622.656 619.974 609.456 591.735 612.281 561.342C614.346 539.128 622.129 525.404 636.74 518.209C644.146 514.562 645.4 514.479 704.298 513.699L764.31 512.904L746.664 485.092C736.956 469.795 727.228 454.239 725.046 450.525L721.075 443.771L681.091 443.914C655.781 444.005 637.023 444.813 629.98 446.115Z" fill="#F6FBFF"/>
</svg>
