<svg width="240" height="80" viewBox="0 0 240 80" fill="none" xmlns="http://www.w3.org/2000/svg">
<rect x="0.5" y="0.5" width="79" height="79" stroke="#5E5E5E" stroke-dasharray="16 16"/>
<path d="M14.9121 35.1113C15.14 35.1113 15.361 35.0749 15.5752 35.002C15.7939 34.929 15.9876 34.8265 16.1562 34.6943C16.3249 34.5667 16.4593 34.4163 16.5596 34.2432C16.6644 34.0654 16.7191 33.874 16.7236 33.6689H17.9199C17.9154 33.9971 17.8288 34.3115 17.6602 34.6123C17.4961 34.9085 17.2751 35.1683 16.9971 35.3916C16.7191 35.6195 16.4001 35.8018 16.04 35.9385C15.68 36.0706 15.304 36.1367 14.9121 36.1367C14.3516 36.1367 13.8617 36.0365 13.4424 35.8359C13.0231 35.6354 12.6745 35.3643 12.3965 35.0225C12.1139 34.6852 11.902 34.2956 11.7607 33.8535C11.6195 33.4069 11.5488 32.9375 11.5488 32.4453V32.1582C11.5488 31.6706 11.6195 31.2035 11.7607 30.7568C11.902 30.3102 12.1139 29.916 12.3965 29.5742C12.6745 29.237 13.0231 28.9681 13.4424 28.7676C13.8617 28.5671 14.3516 28.4668 14.9121 28.4668C15.3496 28.4668 15.7507 28.5374 16.1152 28.6787C16.4844 28.8154 16.8034 29.0023 17.0723 29.2393C17.3366 29.4808 17.5439 29.7656 17.6943 30.0938C17.8447 30.4219 17.9199 30.7728 17.9199 31.1465H16.7236C16.7191 30.9232 16.6689 30.7135 16.5732 30.5176C16.4821 30.3171 16.3568 30.1416 16.1973 29.9912C16.0378 29.8408 15.8464 29.7223 15.623 29.6357C15.4043 29.5492 15.1673 29.5059 14.9121 29.5059C14.5202 29.5059 14.1898 29.5856 13.9209 29.7451C13.6566 29.9001 13.4424 30.1029 13.2783 30.3535C13.1143 30.6087 12.9958 30.8936 12.9229 31.208C12.8545 31.5225 12.8203 31.8392 12.8203 32.1582V32.4453C12.8203 32.7689 12.8545 33.0902 12.9229 33.4092C12.9958 33.7236 13.1143 34.0062 13.2783 34.2568C13.4378 34.512 13.6497 34.7194 13.9141 34.8789C14.1829 35.0339 14.5156 35.1113 14.9121 35.1113ZM19.8135 32.2334C19.8135 31.7002 19.891 31.2057 20.0459 30.75C20.2008 30.2897 20.4242 29.891 20.7158 29.5537C21.0029 29.2165 21.3538 28.9521 21.7686 28.7607C22.1833 28.5648 22.6504 28.4668 23.1699 28.4668C23.694 28.4668 24.1634 28.5648 24.5781 28.7607C24.9974 28.9521 25.3529 29.2165 25.6445 29.5537C25.9316 29.891 26.1527 30.2897 26.3076 30.75C26.4626 31.2057 26.54 31.7002 26.54 32.2334V32.3838C26.54 32.917 26.4626 33.4115 26.3076 33.8672C26.1527 34.3229 25.9316 34.7194 25.6445 35.0566C25.3529 35.3939 24.9997 35.6582 24.585 35.8496C24.1702 36.041 23.7031 36.1367 23.1836 36.1367C22.6595 36.1367 22.1878 36.041 21.7686 35.8496C21.3538 35.6582 21.0029 35.3939 20.7158 35.0566C20.4242 34.7194 20.2008 34.3229 20.0459 33.8672C19.891 33.4115 19.8135 32.917 19.8135 32.3838V32.2334ZM21.0781 32.3838C21.0781 32.7484 21.1214 33.097 21.208 33.4297C21.2946 33.7578 21.4268 34.0472 21.6045 34.2979C21.7777 34.5485 21.9964 34.7467 22.2607 34.8926C22.5251 35.0384 22.8327 35.1113 23.1836 35.1113C23.5299 35.1113 23.833 35.0384 24.0928 34.8926C24.3571 34.7467 24.5781 34.5485 24.7559 34.2979C24.929 34.0472 25.0589 33.7578 25.1455 33.4297C25.2321 33.097 25.2754 32.7484 25.2754 32.3838V32.2334C25.2754 31.8734 25.2298 31.5293 25.1387 31.2012C25.0521 30.8685 24.9222 30.5768 24.749 30.3262C24.5713 30.0755 24.3503 29.8773 24.0859 29.7314C23.8262 29.5811 23.5208 29.5059 23.1699 29.5059C22.819 29.5059 22.5137 29.5811 22.2539 29.7314C21.9941 29.8773 21.7777 30.0755 21.6045 30.3262C21.4268 30.5768 21.2946 30.8685 21.208 31.2012C21.1214 31.5293 21.0781 31.8734 21.0781 32.2334V32.3838ZM29.1582 28.6035L29.1924 29.3008C29.3428 29.041 29.5387 28.8382 29.7803 28.6924C30.0264 28.5465 30.3226 28.4714 30.6689 28.4668C30.8649 28.4668 31.0404 28.4896 31.1953 28.5352C31.3548 28.5762 31.4938 28.6377 31.6123 28.7197C31.6989 28.7835 31.7764 28.861 31.8447 28.9521C31.9176 29.0433 31.9792 29.1458 32.0293 29.2598C32.0931 29.1549 32.1683 29.057 32.2549 28.9658C32.3415 28.8747 32.4349 28.7949 32.5352 28.7266C32.6628 28.6491 32.804 28.5876 32.959 28.542C33.1185 28.4964 33.2917 28.4714 33.4785 28.4668C33.7337 28.4668 33.9639 28.5055 34.1689 28.583C34.374 28.6559 34.5472 28.7653 34.6885 28.9111C34.8434 29.0752 34.9619 29.2894 35.0439 29.5537C35.126 29.8135 35.167 30.1211 35.167 30.4766V36H33.9639V30.4629C33.9639 30.3079 33.9456 30.1712 33.9092 30.0527C33.8727 29.9342 33.8203 29.8363 33.752 29.7588C33.679 29.6859 33.5879 29.6312 33.4785 29.5947C33.3737 29.5583 33.2507 29.54 33.1094 29.54C32.959 29.54 32.8291 29.5605 32.7197 29.6016C32.6104 29.6426 32.5192 29.6973 32.4463 29.7656C32.3734 29.8385 32.3164 29.9229 32.2754 30.0186C32.2344 30.1097 32.207 30.2122 32.1934 30.3262C32.1934 30.349 32.1934 30.3717 32.1934 30.3945C32.1934 30.4128 32.1934 30.4355 32.1934 30.4629V36H30.9902V30.4561C30.9902 30.3011 30.972 30.1644 30.9355 30.0459C30.9036 29.9274 30.8512 29.8294 30.7783 29.752C30.71 29.679 30.6234 29.6266 30.5186 29.5947C30.4183 29.5583 30.2998 29.54 30.1631 29.54C30.0127 29.54 29.8805 29.5583 29.7666 29.5947C29.6572 29.6266 29.5638 29.6745 29.4863 29.7383C29.4271 29.7884 29.3747 29.8454 29.3291 29.9092C29.2881 29.973 29.2539 30.0413 29.2266 30.1143V36H28.0234V28.6035H29.1582ZM36.9785 38.8438V28.6035H38.1338L38.1953 29.4102C38.2956 29.2826 38.4049 29.1686 38.5234 29.0684C38.6419 28.9635 38.7695 28.8747 38.9062 28.8018C39.0977 28.6924 39.3096 28.6104 39.542 28.5557C39.779 28.4964 40.0319 28.4668 40.3008 28.4668C40.7747 28.4668 41.194 28.5602 41.5586 28.7471C41.9232 28.9339 42.2285 29.1937 42.4746 29.5264C42.7207 29.859 42.9076 30.2578 43.0352 30.7227C43.1628 31.1829 43.2266 31.6888 43.2266 32.2402V32.3838C43.2266 32.9124 43.1628 33.4069 43.0352 33.8672C42.9076 34.3229 42.7207 34.7194 42.4746 35.0566C42.2285 35.3939 41.9232 35.6582 41.5586 35.8496C41.1986 36.041 40.7861 36.1367 40.3213 36.1367C40.0387 36.1367 39.7744 36.1071 39.5283 36.0479C39.2868 35.9886 39.068 35.9043 38.8721 35.7949C38.7536 35.7266 38.6419 35.6514 38.5371 35.5693C38.4323 35.4827 38.3343 35.3893 38.2432 35.2891V38.8438H36.9785ZM41.9619 32.2402C41.9619 31.8802 41.9209 31.5384 41.8389 31.2148C41.7614 30.8867 41.6406 30.5973 41.4766 30.3467C41.3079 30.1006 41.096 29.9046 40.8408 29.7588C40.5856 29.613 40.2803 29.54 39.9248 29.54C39.7288 29.54 39.5465 29.5628 39.3779 29.6084C39.2139 29.654 39.0658 29.7201 38.9336 29.8066C38.7878 29.8932 38.6579 30.0003 38.5439 30.1279C38.43 30.2555 38.3298 30.3968 38.2432 30.5518V34.1133C38.3206 34.25 38.4095 34.3776 38.5098 34.4961C38.61 34.6146 38.724 34.7148 38.8516 34.7969C38.9974 34.8926 39.1592 34.9678 39.3369 35.0225C39.5192 35.0771 39.7197 35.1045 39.9385 35.1045C40.2894 35.1045 40.5924 35.0316 40.8477 34.8857C41.1029 34.7354 41.3125 34.5348 41.4766 34.2842C41.6406 34.0335 41.7614 33.7441 41.8389 33.416C41.9209 33.0879 41.9619 32.7438 41.9619 32.3838V32.2402ZM50.2539 36C50.2038 35.9043 50.1628 35.7858 50.1309 35.6445C50.1035 35.4987 50.083 35.3483 50.0693 35.1934C49.9417 35.321 49.7982 35.4417 49.6387 35.5557C49.4837 35.6696 49.3128 35.7699 49.126 35.8564C48.9346 35.943 48.7318 36.0114 48.5176 36.0615C48.3034 36.1117 48.0755 36.1367 47.834 36.1367C47.4421 36.1367 47.0866 36.0798 46.7676 35.9658C46.4531 35.8519 46.1865 35.6969 45.9678 35.501C45.7445 35.3096 45.5713 35.0817 45.4482 34.8174C45.3298 34.5485 45.2705 34.2591 45.2705 33.9492C45.2705 33.5436 45.3503 33.1882 45.5098 32.8828C45.6738 32.5775 45.904 32.3223 46.2002 32.1172C46.4964 31.9167 46.8519 31.7663 47.2666 31.666C47.6859 31.5658 48.153 31.5156 48.668 31.5156H50.0488V30.9346C50.0488 30.7113 50.0078 30.5107 49.9258 30.333C49.8438 30.1553 49.7275 30.0026 49.5771 29.875C49.4268 29.752 49.2422 29.6562 49.0234 29.5879C48.8092 29.5195 48.5677 29.4854 48.2988 29.4854C48.0482 29.4854 47.8226 29.5173 47.6221 29.5811C47.4261 29.6449 47.2598 29.7292 47.123 29.834C46.9863 29.9388 46.8792 30.0641 46.8018 30.21C46.7288 30.3512 46.6924 30.4993 46.6924 30.6543H45.4209C45.4255 30.3854 45.4938 30.1211 45.626 29.8613C45.7627 29.6016 45.9587 29.3669 46.2139 29.1572C46.4645 28.9521 46.7699 28.7858 47.1299 28.6582C47.4945 28.5306 47.9069 28.4668 48.3672 28.4668C48.7865 28.4668 49.1761 28.5192 49.5361 28.624C49.8962 28.7243 50.2083 28.877 50.4727 29.082C50.7324 29.2917 50.9375 29.5514 51.0879 29.8613C51.2383 30.1712 51.3135 30.5335 51.3135 30.9482V34.3867C51.3135 34.6328 51.3363 34.8949 51.3818 35.1729C51.4274 35.4463 51.4912 35.6855 51.5732 35.8906V36H50.2539ZM48.0186 35.0361C48.2646 35.0361 48.4948 35.0042 48.709 34.9404C48.9232 34.8766 49.1191 34.7923 49.2969 34.6875C49.4701 34.5827 49.6204 34.4642 49.748 34.332C49.8757 34.1953 49.9759 34.054 50.0488 33.9082V32.4111H48.873C48.4355 32.4111 48.0527 32.4499 47.7246 32.5273C47.401 32.6003 47.1436 32.7142 46.9521 32.8691C46.8154 32.9785 46.7106 33.1084 46.6377 33.2588C46.5693 33.4092 46.5352 33.5801 46.5352 33.7715C46.5352 33.9538 46.5648 34.1224 46.624 34.2773C46.6878 34.4323 46.7812 34.5645 46.9043 34.6738C47.0273 34.7878 47.1823 34.8766 47.3691 34.9404C47.556 35.0042 47.7725 35.0361 48.0186 35.0361ZM53.8018 36V28.6035H54.9365L55.0254 29.6973C55.1348 29.5423 55.2533 29.401 55.3809 29.2734C55.513 29.1413 55.652 29.0273 55.7979 28.9316C56.0166 28.7858 56.2536 28.6742 56.5088 28.5967C56.7686 28.5146 57.042 28.4714 57.3291 28.4668C57.7165 28.4668 58.0674 28.5215 58.3818 28.6309C58.7008 28.7402 58.972 28.9111 59.1953 29.1436C59.4186 29.376 59.5895 29.6722 59.708 30.0322C59.8311 30.3877 59.8926 30.8115 59.8926 31.3037V36H58.6279V31.3311C58.6279 31.0029 58.5915 30.7249 58.5186 30.4971C58.4456 30.2692 58.3385 30.0846 58.1973 29.9434C58.0514 29.8021 57.8737 29.6995 57.6641 29.6357C57.459 29.5719 57.222 29.54 56.9531 29.54C56.7207 29.54 56.5042 29.5742 56.3037 29.6426C56.1032 29.7064 55.9186 29.7952 55.75 29.9092C55.6133 30.0094 55.4857 30.1257 55.3672 30.2578C55.2533 30.39 55.153 30.5358 55.0664 30.6953V36H53.8018ZM62.8047 38.9873C62.6862 38.9873 62.5472 38.9736 62.3877 38.9463C62.2282 38.9189 62.1074 38.8962 62.0254 38.8779L62.2305 37.8457C62.3444 37.8548 62.4561 37.8617 62.5654 37.8662C62.6794 37.8753 62.7682 37.8799 62.832 37.8799C63.0052 37.8799 63.1624 37.832 63.3037 37.7363C63.4495 37.6406 63.5794 37.5267 63.6934 37.3945C63.8027 37.2624 63.8962 37.1257 63.9736 36.9844C64.0557 36.8431 64.1195 36.7269 64.165 36.6357L64.6709 35.6514L61.4854 28.6035H62.9004L64.9307 33.375L65.2588 34.2705L65.6074 33.4023L67.5146 28.6035H68.9297L65.1768 37.1416C65.0902 37.333 64.9785 37.5358 64.8418 37.75C64.7096 37.9642 64.5479 38.1624 64.3564 38.3447C64.165 38.527 63.9417 38.6797 63.6865 38.8027C63.4313 38.9258 63.1374 38.9873 62.8047 38.9873ZM24.5713 43.5H28.3516V52.9062H30.7646V54H24.5713V52.9062H27.0869V44.6006H24.5713V43.5ZM32.4258 50.2334C32.4258 49.7002 32.5033 49.2057 32.6582 48.75C32.8132 48.2897 33.0365 47.891 33.3281 47.5537C33.6152 47.2165 33.9661 46.9521 34.3809 46.7607C34.7956 46.5648 35.2627 46.4668 35.7822 46.4668C36.3063 46.4668 36.7757 46.5648 37.1904 46.7607C37.6097 46.9521 37.9652 47.2165 38.2568 47.5537C38.5439 47.891 38.765 48.2897 38.9199 48.75C39.0749 49.2057 39.1523 49.7002 39.1523 50.2334V50.3838C39.1523 50.917 39.0749 51.4115 38.9199 51.8672C38.765 52.3229 38.5439 52.7194 38.2568 53.0566C37.9652 53.3939 37.612 53.6582 37.1973 53.8496C36.7826 54.041 36.3154 54.1367 35.7959 54.1367C35.2718 54.1367 34.8001 54.041 34.3809 53.8496C33.9661 53.6582 33.6152 53.3939 33.3281 53.0566C33.0365 52.7194 32.8132 52.3229 32.6582 51.8672C32.5033 51.4115 32.4258 50.917 32.4258 50.3838V50.2334ZM33.6904 50.3838C33.6904 50.7484 33.7337 51.097 33.8203 51.4297C33.9069 51.7578 34.0391 52.0472 34.2168 52.2979C34.39 52.5485 34.6087 52.7467 34.873 52.8926C35.1374 53.0384 35.445 53.1113 35.7959 53.1113C36.1423 53.1113 36.4453 53.0384 36.7051 52.8926C36.9694 52.7467 37.1904 52.5485 37.3682 52.2979C37.5413 52.0472 37.6712 51.7578 37.7578 51.4297C37.8444 51.097 37.8877 50.7484 37.8877 50.3838V50.2334C37.8877 49.8734 37.8421 49.5293 37.751 49.2012C37.6644 48.8685 37.5345 48.5768 37.3613 48.3262C37.1836 48.0755 36.9626 47.8773 36.6982 47.7314C36.4385 47.5811 36.1331 47.5059 35.7822 47.5059C35.4313 47.5059 35.126 47.5811 34.8662 47.7314C34.6064 47.8773 34.39 48.0755 34.2168 48.3262C34.0391 48.5768 33.9069 48.8685 33.8203 49.2012C33.7337 49.5293 33.6904 49.8734 33.6904 50.2334V50.3838ZM40.957 50.2402C40.957 49.6888 41.0231 49.1829 41.1553 48.7227C41.292 48.2578 41.488 47.859 41.7432 47.5264C41.9984 47.1937 42.3083 46.9339 42.6729 46.7471C43.0374 46.5602 43.4499 46.4668 43.9102 46.4668C44.2064 46.4668 44.4775 46.501 44.7236 46.5693C44.9743 46.6377 45.1999 46.738 45.4004 46.8701C45.5098 46.9385 45.6123 47.0182 45.708 47.1094C45.8083 47.2005 45.9017 47.3008 45.9883 47.4102L46.0498 46.6035H47.1982V53.8428C47.1982 54.3304 47.1208 54.7633 46.9658 55.1416C46.8154 55.5199 46.6035 55.8411 46.3301 56.1055C46.0521 56.3698 45.7217 56.5703 45.3389 56.707C44.9561 56.8438 44.5322 56.9121 44.0674 56.9121C43.876 56.9121 43.6572 56.8893 43.4111 56.8438C43.165 56.8027 42.9167 56.7321 42.666 56.6318C42.4108 56.5361 42.1647 56.4062 41.9277 56.2422C41.6953 56.0781 41.4948 55.8753 41.3262 55.6338L41.9824 54.875C42.1374 55.0618 42.2969 55.2191 42.4609 55.3467C42.625 55.4788 42.7913 55.5837 42.96 55.6611C43.1286 55.7386 43.2972 55.7933 43.4658 55.8252C43.6344 55.8617 43.8031 55.8799 43.9717 55.8799C44.2725 55.8799 44.5436 55.8366 44.7852 55.75C45.0267 55.6634 45.234 55.5358 45.4072 55.3672C45.5758 55.2031 45.7057 54.998 45.7969 54.752C45.888 54.5059 45.9336 54.2233 45.9336 53.9043V53.2686C45.8379 53.3779 45.7354 53.4782 45.626 53.5693C45.5212 53.6605 45.4072 53.7402 45.2842 53.8086C45.0928 53.9134 44.8809 53.9932 44.6484 54.0479C44.416 54.1071 44.1654 54.1367 43.8965 54.1367C43.4453 54.1367 43.0374 54.041 42.6729 53.8496C42.3083 53.6582 42.0007 53.3939 41.75 53.0566C41.4948 52.7194 41.2988 52.3229 41.1621 51.8672C41.0254 51.4069 40.957 50.9124 40.957 50.3838V50.2402ZM42.2217 50.3838C42.2217 50.7438 42.2581 51.0856 42.3311 51.4092C42.4085 51.7327 42.5293 52.0176 42.6934 52.2637C42.8529 52.5098 43.0579 52.7057 43.3086 52.8516C43.5592 52.9928 43.86 53.0635 44.2109 53.0635C44.4297 53.0635 44.6257 53.0384 44.7988 52.9883C44.9766 52.9336 45.1361 52.8584 45.2773 52.7627C45.4141 52.667 45.5371 52.5531 45.6465 52.4209C45.7559 52.2887 45.8516 52.1429 45.9336 51.9834V48.5928C45.8516 48.4378 45.7559 48.2965 45.6465 48.1689C45.5371 48.0413 45.4118 47.9297 45.2705 47.834C45.1292 47.7428 44.972 47.6722 44.7988 47.6221C44.6257 47.5674 44.4342 47.54 44.2246 47.54C43.8691 47.54 43.5638 47.613 43.3086 47.7588C43.0579 47.9046 42.8529 48.1006 42.6934 48.3467C42.5293 48.5973 42.4085 48.8867 42.3311 49.2148C42.2581 49.5384 42.2217 49.8802 42.2217 50.2402V50.3838ZM49.2422 50.2334C49.2422 49.7002 49.3197 49.2057 49.4746 48.75C49.6296 48.2897 49.8529 47.891 50.1445 47.5537C50.4316 47.2165 50.7826 46.9521 51.1973 46.7607C51.612 46.5648 52.0791 46.4668 52.5986 46.4668C53.1227 46.4668 53.5921 46.5648 54.0068 46.7607C54.4261 46.9521 54.7816 47.2165 55.0732 47.5537C55.3604 47.891 55.5814 48.2897 55.7363 48.75C55.8913 49.2057 55.9688 49.7002 55.9688 50.2334V50.3838C55.9688 50.917 55.8913 51.4115 55.7363 51.8672C55.5814 52.3229 55.3604 52.7194 55.0732 53.0566C54.7816 53.3939 54.4284 53.6582 54.0137 53.8496C53.599 54.041 53.1318 54.1367 52.6123 54.1367C52.0882 54.1367 51.6165 54.041 51.1973 53.8496C50.7826 53.6582 50.4316 53.3939 50.1445 53.0566C49.8529 52.7194 49.6296 52.3229 49.4746 51.8672C49.3197 51.4115 49.2422 50.917 49.2422 50.3838V50.2334ZM50.5068 50.3838C50.5068 50.7484 50.5501 51.097 50.6367 51.4297C50.7233 51.7578 50.8555 52.0472 51.0332 52.2979C51.2064 52.5485 51.4251 52.7467 51.6895 52.8926C51.9538 53.0384 52.2614 53.1113 52.6123 53.1113C52.9587 53.1113 53.2617 53.0384 53.5215 52.8926C53.7858 52.7467 54.0068 52.5485 54.1846 52.2979C54.3577 52.0472 54.4876 51.7578 54.5742 51.4297C54.6608 51.097 54.7041 50.7484 54.7041 50.3838V50.2334C54.7041 49.8734 54.6585 49.5293 54.5674 49.2012C54.4808 48.8685 54.3509 48.5768 54.1777 48.3262C54 48.0755 53.779 47.8773 53.5146 47.7314C53.2549 47.5811 52.9495 47.5059 52.5986 47.5059C52.2477 47.5059 51.9424 47.5811 51.6826 47.7314C51.4229 47.8773 51.2064 48.0755 51.0332 48.3262C50.8555 48.5768 50.7233 48.8685 50.6367 49.2012C50.5501 49.5293 50.5068 49.8734 50.5068 50.2334V50.3838Z" fill="#5E5E5E"/>
<path d="M100.338 43.7227C100.253 44.3802 100.084 44.9857 99.8301 45.5391C99.5762 46.0859 99.2474 46.5547 98.8438 46.9453C98.4336 47.3424 97.9486 47.6517 97.3887 47.873C96.8353 48.0879 96.2168 48.1953 95.5332 48.1953C94.9473 48.1953 94.4134 48.1139 93.9316 47.9512C93.4564 47.7819 93.0332 47.5508 92.6621 47.2578C92.2845 46.9648 91.959 46.6198 91.6855 46.2227C91.4186 45.8255 91.1973 45.3926 91.0215 44.9238C90.8392 44.4551 90.7025 43.9635 90.6113 43.4492C90.5267 42.9349 90.4811 42.4141 90.4746 41.8867V39.9043C90.4811 39.377 90.5267 38.8561 90.6113 38.3418C90.7025 37.8275 90.8392 37.3359 91.0215 36.8672C91.1973 36.3984 91.4186 35.9655 91.6855 35.5684C91.959 35.1647 92.2845 34.8164 92.6621 34.5234C93.0332 34.2305 93.4564 34.0026 93.9316 33.8398C94.4069 33.6706 94.9408 33.5859 95.5332 33.5859C96.2428 33.5859 96.8776 33.6966 97.4375 33.918C97.9974 34.1328 98.4792 34.4388 98.8828 34.8359C99.2865 35.2396 99.6087 35.7214 99.8496 36.2812C100.097 36.8411 100.26 37.4596 100.338 38.1367H98.5312C98.4727 37.707 98.3717 37.3066 98.2285 36.9355C98.0853 36.5645 97.8932 36.2389 97.6523 35.959C97.4115 35.679 97.1152 35.4609 96.7637 35.3047C96.4186 35.1419 96.0085 35.0605 95.5332 35.0605C95.1035 35.0605 94.7227 35.1322 94.3906 35.2754C94.0651 35.4121 93.7852 35.6009 93.5508 35.8418C93.3099 36.0827 93.1081 36.3626 92.9453 36.6816C92.7891 37.0007 92.6621 37.3392 92.5645 37.6973C92.4668 38.0553 92.3952 38.4232 92.3496 38.8008C92.3105 39.1719 92.291 39.5332 92.291 39.8848V41.8867C92.291 42.2383 92.3105 42.6029 92.3496 42.9805C92.3952 43.3516 92.4668 43.7161 92.5645 44.0742C92.6621 44.4388 92.7891 44.7806 92.9453 45.0996C93.1016 45.4186 93.3001 45.6986 93.541 45.9395C93.7819 46.1868 94.0651 46.3822 94.3906 46.5254C94.7161 46.6621 95.097 46.7305 95.5332 46.7305C96.0085 46.7305 96.4186 46.6556 96.7637 46.5059C97.1152 46.3561 97.4115 46.1445 97.6523 45.8711C97.8932 45.6042 98.0853 45.2884 98.2285 44.9238C98.3717 44.5527 98.4727 44.1523 98.5312 43.7227H100.338ZM102.633 42.6191C102.633 41.8574 102.743 41.151 102.965 40.5C103.186 39.8424 103.505 39.2728 103.922 38.791C104.332 38.3092 104.833 37.9316 105.426 37.6582C106.018 37.3783 106.686 37.2383 107.428 37.2383C108.176 37.2383 108.847 37.3783 109.439 37.6582C110.038 37.9316 110.546 38.3092 110.963 38.791C111.373 39.2728 111.689 39.8424 111.91 40.5C112.132 41.151 112.242 41.8574 112.242 42.6191V42.834C112.242 43.5957 112.132 44.3021 111.91 44.9531C111.689 45.6042 111.373 46.1706 110.963 46.6523C110.546 47.1341 110.042 47.5117 109.449 47.7852C108.857 48.0586 108.189 48.1953 107.447 48.1953C106.699 48.1953 106.025 48.0586 105.426 47.7852C104.833 47.5117 104.332 47.1341 103.922 46.6523C103.505 46.1706 103.186 45.6042 102.965 44.9531C102.743 44.3021 102.633 43.5957 102.633 42.834V42.6191ZM104.439 42.834C104.439 43.3548 104.501 43.8529 104.625 44.3281C104.749 44.7969 104.938 45.2103 105.191 45.5684C105.439 45.9264 105.751 46.2096 106.129 46.418C106.507 46.6263 106.946 46.7305 107.447 46.7305C107.942 46.7305 108.375 46.6263 108.746 46.418C109.124 46.2096 109.439 45.9264 109.693 45.5684C109.941 45.2103 110.126 44.7969 110.25 44.3281C110.374 43.8529 110.436 43.3548 110.436 42.834V42.6191C110.436 42.1048 110.37 41.6133 110.24 41.1445C110.117 40.6693 109.931 40.2526 109.684 39.8945C109.43 39.5365 109.114 39.2533 108.736 39.0449C108.365 38.8301 107.929 38.7227 107.428 38.7227C106.926 38.7227 106.49 38.8301 106.119 39.0449C105.748 39.2533 105.439 39.5365 105.191 39.8945C104.938 40.2526 104.749 40.6693 104.625 41.1445C104.501 41.6133 104.439 42.1048 104.439 42.6191V42.834ZM115.982 37.4336L116.031 38.4297C116.246 38.0586 116.526 37.7689 116.871 37.5605C117.223 37.3522 117.646 37.2448 118.141 37.2383C118.421 37.2383 118.671 37.2708 118.893 37.3359C119.12 37.3945 119.319 37.4824 119.488 37.5996C119.612 37.6908 119.723 37.8014 119.82 37.9316C119.924 38.0618 120.012 38.2083 120.084 38.3711C120.175 38.2214 120.283 38.0814 120.406 37.9512C120.53 37.821 120.663 37.707 120.807 37.6094C120.989 37.4987 121.191 37.4108 121.412 37.3457C121.64 37.2806 121.887 37.2448 122.154 37.2383C122.519 37.2383 122.848 37.2936 123.141 37.4043C123.434 37.5085 123.681 37.6647 123.883 37.873C124.104 38.1074 124.273 38.4134 124.391 38.791C124.508 39.1621 124.566 39.6016 124.566 40.1094V48H122.848V40.0898C122.848 39.8685 122.822 39.6732 122.77 39.5039C122.717 39.3346 122.643 39.1947 122.545 39.084C122.441 38.9798 122.311 38.9017 122.154 38.8496C122.005 38.7975 121.829 38.7715 121.627 38.7715C121.412 38.7715 121.227 38.8008 121.07 38.8594C120.914 38.918 120.784 38.9961 120.68 39.0938C120.576 39.1979 120.494 39.3184 120.436 39.4551C120.377 39.5853 120.338 39.7318 120.318 39.8945C120.318 39.9271 120.318 39.9596 120.318 39.9922C120.318 40.0182 120.318 40.0508 120.318 40.0898V48H118.6V40.0801C118.6 39.8587 118.574 39.6634 118.521 39.4941C118.476 39.3249 118.401 39.1849 118.297 39.0742C118.199 38.9701 118.076 38.8952 117.926 38.8496C117.783 38.7975 117.613 38.7715 117.418 38.7715C117.203 38.7715 117.014 38.7975 116.852 38.8496C116.695 38.8952 116.562 38.9635 116.451 39.0547C116.367 39.1263 116.292 39.2077 116.227 39.2988C116.168 39.39 116.119 39.4876 116.08 39.5918V48H114.361V37.4336H115.982ZM127.154 52.0625V37.4336H128.805L128.893 38.5859C129.036 38.4036 129.192 38.2409 129.361 38.0977C129.531 37.9479 129.713 37.821 129.908 37.7168C130.182 37.5605 130.484 37.4434 130.816 37.3652C131.155 37.2806 131.516 37.2383 131.9 37.2383C132.577 37.2383 133.176 37.3717 133.697 37.6387C134.218 37.9056 134.654 38.2767 135.006 38.752C135.357 39.2272 135.624 39.7969 135.807 40.4609C135.989 41.1185 136.08 41.8411 136.08 42.6289V42.834C136.08 43.5892 135.989 44.2956 135.807 44.9531C135.624 45.6042 135.357 46.1706 135.006 46.6523C134.654 47.1341 134.218 47.5117 133.697 47.7852C133.183 48.0586 132.594 48.1953 131.93 48.1953C131.526 48.1953 131.148 48.153 130.797 48.0684C130.452 47.9837 130.139 47.8633 129.859 47.707C129.69 47.6094 129.531 47.502 129.381 47.3848C129.231 47.2611 129.091 47.1276 128.961 46.9844V52.0625H127.154ZM134.273 42.6289C134.273 42.1146 134.215 41.6263 134.098 41.1641C133.987 40.6953 133.814 40.2819 133.58 39.9238C133.339 39.5723 133.036 39.2923 132.672 39.084C132.307 38.8757 131.871 38.7715 131.363 38.7715C131.083 38.7715 130.823 38.804 130.582 38.8691C130.348 38.9342 130.136 39.0286 129.947 39.1523C129.739 39.276 129.553 39.429 129.391 39.6113C129.228 39.7936 129.085 39.9954 128.961 40.2168V45.3047C129.072 45.5 129.199 45.6823 129.342 45.8516C129.485 46.0208 129.648 46.1641 129.83 46.2812C130.038 46.418 130.27 46.5254 130.523 46.6035C130.784 46.6816 131.07 46.7207 131.383 46.7207C131.884 46.7207 132.317 46.6165 132.682 46.4082C133.046 46.1934 133.346 45.9069 133.58 45.5488C133.814 45.1908 133.987 44.7773 134.098 44.3086C134.215 43.8398 134.273 43.3483 134.273 42.834V42.6289ZM146.119 48C146.048 47.8633 145.989 47.694 145.943 47.4922C145.904 47.2839 145.875 47.069 145.855 46.8477C145.673 47.0299 145.468 47.2025 145.24 47.3652C145.019 47.528 144.775 47.6712 144.508 47.7949C144.234 47.9186 143.945 48.0163 143.639 48.0879C143.333 48.1595 143.007 48.1953 142.662 48.1953C142.102 48.1953 141.594 48.1139 141.139 47.9512C140.689 47.7884 140.309 47.5671 139.996 47.2871C139.677 47.0137 139.43 46.6882 139.254 46.3105C139.085 45.9264 139 45.513 139 45.0703C139 44.4909 139.114 43.9831 139.342 43.5469C139.576 43.1107 139.905 42.7461 140.328 42.4531C140.751 42.1667 141.259 41.9518 141.852 41.8086C142.451 41.6654 143.118 41.5938 143.854 41.5938H145.826V40.7637C145.826 40.4447 145.768 40.1582 145.65 39.9043C145.533 39.6504 145.367 39.4323 145.152 39.25C144.938 39.0742 144.674 38.9375 144.361 38.8398C144.055 38.7422 143.71 38.6934 143.326 38.6934C142.968 38.6934 142.646 38.7389 142.359 38.8301C142.079 38.9212 141.842 39.0417 141.646 39.1914C141.451 39.3411 141.298 39.5202 141.188 39.7285C141.083 39.9303 141.031 40.1419 141.031 40.3633H139.215C139.221 39.9792 139.319 39.6016 139.508 39.2305C139.703 38.8594 139.983 38.5241 140.348 38.2246C140.706 37.9316 141.142 37.694 141.656 37.5117C142.177 37.3294 142.766 37.2383 143.424 37.2383C144.023 37.2383 144.579 37.3132 145.094 37.4629C145.608 37.6061 146.054 37.8242 146.432 38.1172C146.803 38.4167 147.096 38.7878 147.311 39.2305C147.525 39.6732 147.633 40.1908 147.633 40.7832V45.6953C147.633 46.0469 147.665 46.4212 147.73 46.8184C147.796 47.209 147.887 47.5508 148.004 47.8438V48H146.119ZM142.926 46.623C143.277 46.623 143.606 46.5775 143.912 46.4863C144.218 46.3952 144.498 46.2747 144.752 46.125C144.999 45.9753 145.214 45.806 145.396 45.6172C145.579 45.4219 145.722 45.2201 145.826 45.0117V42.873H144.146C143.521 42.873 142.975 42.9284 142.506 43.0391C142.044 43.1432 141.676 43.306 141.402 43.5273C141.207 43.6836 141.057 43.8691 140.953 44.084C140.855 44.2988 140.807 44.543 140.807 44.8164C140.807 45.0768 140.849 45.3177 140.934 45.5391C141.025 45.7604 141.158 45.9492 141.334 46.1055C141.51 46.2682 141.731 46.3952 141.998 46.4863C142.265 46.5775 142.574 46.623 142.926 46.623ZM151.188 48V37.4336H152.809L152.936 38.9961C153.092 38.7747 153.261 38.5729 153.443 38.3906C153.632 38.2018 153.831 38.0391 154.039 37.9023C154.352 37.694 154.69 37.5345 155.055 37.4238C155.426 37.3066 155.816 37.2448 156.227 37.2383C156.78 37.2383 157.281 37.3164 157.73 37.4727C158.186 37.6289 158.574 37.873 158.893 38.2051C159.212 38.5371 159.456 38.9603 159.625 39.4746C159.801 39.9824 159.889 40.5879 159.889 41.291V48H158.082V41.3301C158.082 40.8613 158.03 40.4642 157.926 40.1387C157.822 39.8132 157.669 39.5495 157.467 39.3477C157.258 39.1458 157.005 38.9993 156.705 38.9082C156.412 38.8171 156.074 38.7715 155.689 38.7715C155.357 38.7715 155.048 38.8203 154.762 38.918C154.475 39.0091 154.212 39.1361 153.971 39.2988C153.775 39.4421 153.593 39.6081 153.424 39.7969C153.261 39.9857 153.118 40.194 152.994 40.4219V48H151.188ZM164.049 52.2676C163.88 52.2676 163.681 52.248 163.453 52.209C163.225 52.1699 163.053 52.1374 162.936 52.1113L163.229 50.6367C163.391 50.6497 163.551 50.6595 163.707 50.666C163.87 50.679 163.997 50.6855 164.088 50.6855C164.335 50.6855 164.56 50.6172 164.762 50.4805C164.97 50.3438 165.156 50.181 165.318 49.9922C165.475 49.8034 165.608 49.6081 165.719 49.4062C165.836 49.2044 165.927 49.0384 165.992 48.9082L166.715 47.502L162.164 37.4336H164.186L167.086 44.25L167.555 45.5293L168.053 44.2891L170.777 37.4336H172.799L167.438 49.6309C167.314 49.9043 167.154 50.194 166.959 50.5C166.77 50.806 166.539 51.0892 166.266 51.3496C165.992 51.61 165.673 51.8281 165.309 52.0039C164.944 52.1797 164.524 52.2676 164.049 52.2676ZM196.129 48H194.293L188.775 37.375L188.746 48H186.92V33.7812H188.756L194.273 44.3867L194.303 33.7812H196.129V48ZM206.178 48C206.106 47.8633 206.048 47.694 206.002 47.4922C205.963 47.2839 205.934 47.069 205.914 46.8477C205.732 47.0299 205.527 47.2025 205.299 47.3652C205.077 47.528 204.833 47.6712 204.566 47.7949C204.293 47.9186 204.003 48.0163 203.697 48.0879C203.391 48.1595 203.066 48.1953 202.721 48.1953C202.161 48.1953 201.653 48.1139 201.197 47.9512C200.748 47.7884 200.367 47.5671 200.055 47.2871C199.736 47.0137 199.488 46.6882 199.312 46.3105C199.143 45.9264 199.059 45.513 199.059 45.0703C199.059 44.4909 199.173 43.9831 199.4 43.5469C199.635 43.1107 199.964 42.7461 200.387 42.4531C200.81 42.1667 201.318 41.9518 201.91 41.8086C202.509 41.6654 203.176 41.5938 203.912 41.5938H205.885V40.7637C205.885 40.4447 205.826 40.1582 205.709 39.9043C205.592 39.6504 205.426 39.4323 205.211 39.25C204.996 39.0742 204.732 38.9375 204.42 38.8398C204.114 38.7422 203.769 38.6934 203.385 38.6934C203.027 38.6934 202.704 38.7389 202.418 38.8301C202.138 38.9212 201.9 39.0417 201.705 39.1914C201.51 39.3411 201.357 39.5202 201.246 39.7285C201.142 39.9303 201.09 40.1419 201.09 40.3633H199.273C199.28 39.9792 199.378 39.6016 199.566 39.2305C199.762 38.8594 200.042 38.5241 200.406 38.2246C200.764 37.9316 201.201 37.694 201.715 37.5117C202.236 37.3294 202.825 37.2383 203.482 37.2383C204.081 37.2383 204.638 37.3132 205.152 37.4629C205.667 37.6061 206.113 37.8242 206.49 38.1172C206.861 38.4167 207.154 38.7878 207.369 39.2305C207.584 39.6732 207.691 40.1908 207.691 40.7832V45.6953C207.691 46.0469 207.724 46.4212 207.789 46.8184C207.854 47.209 207.945 47.5508 208.062 47.8438V48H206.178ZM202.984 46.623C203.336 46.623 203.665 46.5775 203.971 46.4863C204.277 46.3952 204.557 46.2747 204.811 46.125C205.058 45.9753 205.273 45.806 205.455 45.6172C205.637 45.4219 205.781 45.2201 205.885 45.0117V42.873H204.205C203.58 42.873 203.033 42.9284 202.564 43.0391C202.102 43.1432 201.734 43.306 201.461 43.5273C201.266 43.6836 201.116 43.8691 201.012 44.084C200.914 44.2988 200.865 44.543 200.865 44.8164C200.865 45.0768 200.908 45.3177 200.992 45.5391C201.083 45.7604 201.217 45.9492 201.393 46.1055C201.568 46.2682 201.79 46.3952 202.057 46.4863C202.324 46.5775 202.633 46.623 202.984 46.623ZM212.076 37.4336L212.125 38.4297C212.34 38.0586 212.62 37.7689 212.965 37.5605C213.316 37.3522 213.74 37.2448 214.234 37.2383C214.514 37.2383 214.765 37.2708 214.986 37.3359C215.214 37.3945 215.413 37.4824 215.582 37.5996C215.706 37.6908 215.816 37.8014 215.914 37.9316C216.018 38.0618 216.106 38.2083 216.178 38.3711C216.269 38.2214 216.376 38.0814 216.5 37.9512C216.624 37.821 216.757 37.707 216.9 37.6094C217.083 37.4987 217.285 37.4108 217.506 37.3457C217.734 37.2806 217.981 37.2448 218.248 37.2383C218.613 37.2383 218.941 37.2936 219.234 37.4043C219.527 37.5085 219.775 37.6647 219.977 37.873C220.198 38.1074 220.367 38.4134 220.484 38.791C220.602 39.1621 220.66 39.6016 220.66 40.1094V48H218.941V40.0898C218.941 39.8685 218.915 39.6732 218.863 39.5039C218.811 39.3346 218.736 39.1947 218.639 39.084C218.535 38.9798 218.404 38.9017 218.248 38.8496C218.098 38.7975 217.923 38.7715 217.721 38.7715C217.506 38.7715 217.32 38.8008 217.164 38.8594C217.008 38.918 216.878 38.9961 216.773 39.0938C216.669 39.1979 216.588 39.3184 216.529 39.4551C216.471 39.5853 216.432 39.7318 216.412 39.8945C216.412 39.9271 216.412 39.9596 216.412 39.9922C216.412 40.0182 216.412 40.0508 216.412 40.0898V48H214.693V40.0801C214.693 39.8587 214.667 39.6634 214.615 39.4941C214.57 39.3249 214.495 39.1849 214.391 39.0742C214.293 38.9701 214.169 38.8952 214.02 38.8496C213.876 38.7975 213.707 38.7715 213.512 38.7715C213.297 38.7715 213.108 38.7975 212.945 38.8496C212.789 38.8952 212.656 38.9635 212.545 39.0547C212.46 39.1263 212.385 39.2077 212.32 39.2988C212.262 39.39 212.213 39.4876 212.174 39.5918V48H210.455V37.4336H212.076ZM227.926 48.1953C227.184 48.1953 226.5 48.0684 225.875 47.8145C225.257 47.5605 224.726 47.2057 224.283 46.75C223.84 46.2943 223.495 45.7539 223.248 45.1289C223.001 44.5039 222.877 43.8236 222.877 43.0879V42.6777C222.877 41.8249 223.014 41.0632 223.287 40.3926C223.561 39.7155 223.925 39.1426 224.381 38.6738C224.83 38.2116 225.341 37.8568 225.914 37.6094C226.493 37.362 227.086 37.2383 227.691 37.2383C228.453 37.2383 229.117 37.3717 229.684 37.6387C230.257 37.8991 230.732 38.2604 231.109 38.7227C231.487 39.1914 231.767 39.7415 231.949 40.373C232.138 41.0046 232.232 41.6882 232.232 42.4238V43.2344H224.684V43.3027C224.729 43.8171 224.83 44.2695 224.986 44.6602C225.149 45.0508 225.37 45.3958 225.65 45.6953C225.937 46.0143 226.282 46.265 226.686 46.4473C227.089 46.6296 227.535 46.7207 228.023 46.7207C228.668 46.7207 229.241 46.5905 229.742 46.3301C230.243 46.0697 230.66 45.7246 230.992 45.2949L232.096 46.1543C231.744 46.6882 231.217 47.1634 230.514 47.5801C229.817 47.9902 228.954 48.1953 227.926 48.1953ZM227.691 38.7227C227.327 38.7227 226.982 38.791 226.656 38.9277C226.331 39.0579 226.038 39.25 225.777 39.5039C225.517 39.7643 225.296 40.0833 225.113 40.4609C224.938 40.832 224.814 41.2617 224.742 41.75H230.426V41.6621C230.426 41.3366 230.364 40.9883 230.24 40.6172C230.117 40.2396 229.944 39.9141 229.723 39.6406C229.501 39.3672 229.221 39.1458 228.883 38.9766C228.551 38.8073 228.154 38.7227 227.691 38.7227Z" fill="#5E5E5E"/>
</svg>
